<?xml version="1.0" encoding="utf-8"?>
<!-- Generator: Adobe Illustrator 16.0.0, SVG Export Plug-In . SVG Version: 6.00 Build 0)  -->
<!DOCTYPE svg PUBLIC "-//W3C//DTD SVG 1.1//EN" "http://www.w3.org/Graphics/SVG/1.1/DTD/svg11.dtd">
<svg version="1.1" id="Layer_1" xmlns="http://www.w3.org/2000/svg" xmlns:xlink="http://www.w3.org/1999/xlink" x="0px" y="0px"
	 width="842px" height="595px" viewBox="0 0 842 595" enable-background="new 0 0 842 595" xml:space="preserve">
<g>
	<g>
		<path fill="#938F8F" d="M597.729,547.362c-14.646,19.874-38.008,29.639-67.303,29.639c-38.009,0-62.42-24.411-62.42-56.143
			c0-32.08,25.461-52.305,68.697-52.655h60.332v-10.813c0-26.854-16.738-42.894-49.17-42.894c-20.226,0-39.057,7.671-58.233,20.926
			l-11.511-19.877c23.709-15.696,43.591-24.76,74.974-24.76c45.334,0,70.444,24.062,70.788,63.468l0.35,121.354h-26.504V547.362z
			 M597.38,512.14v-21.969h-57.184c-30.688,0-46.729,9.413-46.729,29.639c0,20.225,16.391,33.48,42.194,33.48
			C566.699,553.29,590.409,537.592,597.38,512.14z"/>
		<path fill="#938F8F" d="M715.934,339.174c0,10.813-7.67,18.832-17.782,18.832c-10.114,0-17.784-8.02-17.784-18.832
			c0-10.806,7.67-18.827,17.784-18.827C708.264,320.347,715.934,328.368,715.934,339.174z M684.896,575.608V391.829h26.853v183.779
			H684.896z"/>
	</g>
	<path fill="#F58532" d="M618.608,305.701c0,5.347-4.3,9.658-9.645,9.658c-5.326,0-9.628-4.312-9.628-9.658
		c0-5.326,4.302-9.664,9.628-9.664C614.309,296.037,618.608,300.375,618.608,305.701"/>
	<path fill="#F58532" d="M608.956,35.258c95.491,0,173.29,74.724,178.687,168.823h20.529C802.764,98.755,715.649,15,608.956,15
		C502.291,15,415.18,98.755,409.767,204.081h20.531C435.707,109.982,513.531,35.258,608.956,35.258"/>
	<path fill="#F58532" d="M608.956,87.302c73.672,0,133.7,49.32,137.872,111.482c0.162-2.309,0.408-4.567,0.408-6.864
		c0-65.362-61.92-118.353-138.28-118.353c-76.334,0-138.24,52.99-138.24,118.353c0,2.297,0.232,4.555,0.407,6.864
		C475.296,136.622,535.31,87.302,608.956,87.302"/>
	<path fill="#F58532" d="M608.956,141.92c54.976,0,99.728,36.781,102.869,83.176c0.118-1.743,0.312-3.431,0.312-5.161
		c0-48.752-46.196-88.284-103.181-88.284c-56.957,0-103.154,39.532-103.154,88.284c0,1.73,0.201,3.417,0.325,5.161
		C509.268,178.701,554.034,141.92,608.956,141.92"/>
	<path fill="#F58532" d="M608.956,192.047c39.202,0,71.159,26.264,73.394,59.339c0.091-1.251,0.222-2.449,0.222-3.661
		c0-34.815-32.95-62.995-73.615-62.995c-40.618,0-73.586,28.18-73.586,62.995c0,1.211,0.16,2.41,0.232,3.661
		C537.825,218.311,569.783,192.047,608.956,192.047"/>
	<path fill="#F58532" d="M608.956,239.931c24.942,0,45.279,16.702,46.71,37.74c0.033-0.793,0.109-1.539,0.109-2.322
		c0-22.149-20.958-40.088-46.819-40.088c-25.835,0-46.794,17.939-46.794,40.088c0,0.784,0.079,1.529,0.111,2.322
		C563.719,256.633,584.042,239.931,608.956,239.931"/>
	<path fill="#F58532" d="M608.982,267.931c12.549,0,22.732,7.379,23.434,17.964c0.024-0.392,0.063-0.784,0.063-1.159
		c0-11.14-10.513-20.776-23.496-20.776c-13.001,0-23.516,9.636-23.516,20.776c0,0.375,0.039,0.767,0.064,1.159
		C586.225,275.31,596.44,267.931,608.982,267.931"/>
	<path fill="#903A3C" d="M229.957,187.749c-108.289,0-196.128,87.778-196.128,196.108C33.828,492.183,121.668,580,229.957,580
		c108.322,0,196.139-87.817,196.139-196.144C426.096,275.526,338.278,187.749,229.957,187.749 M229.957,426.589
		c-23.587,0-42.728-19.133-42.728-42.732c0-23.59,19.14-42.727,42.728-42.727c23.614,0,42.754,19.137,42.754,42.727
		C272.71,407.456,253.57,426.589,229.957,426.589"/>
	<rect x="395.521" y="15" fill="#903A3C" width="18.858" height="565"/>
	<rect x="413.064" y="15" fill="#F58532" width="18.846" height="565"/>
</g>
</svg>
